<svg height="512pt" viewBox="0 0 512 512" width="512pt" xmlns="http://www.w3.org/2000/svg"><path d="m448 461.996094v-210.253906c0-22.09375-17.910156-40-40-40h-257c-22.089844 0-40 17.90625-40 40v210.253906c0 22.09375 17.910156 40 40 40h257c22.089844 0 40-17.90625 40-40zm0 0" fill="#72d8ff"/><path d="m478 256.128906h-296c-13.253906 0-24-10.746094-24-24v-198.128906c0-13.253906 10.746094-24 24-24h296c13.253906 0 24 10.746094 24 24v198.128906c0 13.253906-10.746094 24-24 24zm0 0" fill="#fff"/><path d="m386.328125 76.328125c-1.90625 1.570313-3.691406 3.300781-5.328125 5.191406-6.585938-7.613281-15.503906-12.773437-25.5-14.144531-9.996094 1.371094-18.914062 6.53125-25.5 14.144531-1.636719-1.890625-3.421875-3.621093-5.328125-5.191406-10.269531 8.472656-16.914063 21.929687-16.914063 37.085937 0 21.644532 26.601563 48.328126 47.742188 66.117188 21.140625-17.789062 47.742188-44.472656 47.742188-66.117188 0-15.15625-6.640626-28.613281-16.914063-37.085937zm0 0" fill="#ff5d5d"/><path d="m316.808594 388.851562c-2.628906 0-5.207032 1.070313-7.070313 2.929688-1.859375 1.859375-2.929687 4.4375-2.929687 7.070312 0 2.636719 1.070312 5.207032 2.929687 7.078126 1.863281 1.859374 4.441407 2.921874 7.070313 2.921874 2.632812 0 5.210937-1.0625 7.070312-2.921874 1.859375-1.871094 2.929688-4.441407 2.929688-7.078126 0-2.632812-1.070313-5.210937-2.929688-7.070312s-4.4375-2.929688-7.070312-2.929688zm0 0"/><path d="m360.820312 57c-11.117187 0-21.929687 3.847656-30.820312 10.78125-8.890625-6.9375-19.703125-10.78125-30.820312-10.78125-28.90625 0-52.421876 25.308594-52.421876 56.414062 0 40.046876 69.675782 88.578126 77.621094 93.980469 1.695313 1.15625 3.65625 1.730469 5.621094 1.730469s3.925781-.574219 5.621094-1.730469c7.945312-5.402343 77.621094-53.933593 77.621094-93.980469 0-31.105468-23.515626-56.414062-52.421876-56.414062zm-30.824218 129.914062c-26.542969-19.125-63.238282-52.710937-63.238282-73.5 0-20.078124 14.542969-36.414062 32.421876-36.414062 8.828124 0 17.085937 3.929688 23.257812 11.0625 1.898438 2.195312 4.660156 3.457031 7.5625 3.457031s5.664062-1.261719 7.5625-3.457031c6.167969-7.132812 14.425781-11.0625 23.253906-11.0625 17.878906 0 32.425782 16.335938 32.425782 36.414062 0 20.753907-36.699219 54.355469-63.246094 73.5zm0 0"/><path d="m478 0h-296c-18.746094 0-34 15.253906-34 34v20h-58c-5.523438 0-10 4.476562-10 10s4.476562 10 10 10h58v36h-96.5c-5.523438 0-10 4.476562-10 10s4.476562 10 10 10h96.5v71.742188h-98c-27.570312 0-50 22.429687-50 50v210.253906c0 27.570312 22.429688 50 50 50h358c27.570312 0 50-22.429688 50-50v-195.867188h20c18.746094 0 34-15.253906 34-34v-198.128906c0-18.746094-15.253906-34-34-34zm-330 221.742188v10.386718c0 18.746094 15.253906 34 34 34h193.730469l-75.371094 75.367188c-39.328125 39.328125-103.320313 39.328125-142.644531 0l-117.953125-117.953125c3.195312-1.164063 6.644531-1.800781 10.238281-1.800781zm-128 240.253906v-210.253906c0-5.628907 1.5625-10.898438 4.269531-15.40625l119.300781 119.304687c4.539063 4.539063 9.355469 8.636719 14.390626 12.300781l-120.214844 120.210938c-.277344.277344-.527344.570312-.765625.871094-10.039063-4.859376-16.980469-15.144532-16.980469-27.027344zm418 0c0 11.914062-6.980469 22.226562-17.0625 27.066406-.328125-.464844-.691406-.914062-1.109375-1.332031l-68.65625-68.65625c-3.90625-3.90625-10.234375-3.90625-14.144531 0-3.902344 3.902343-3.902344 10.234375 0 14.140625l58.785156 58.785156h-333.625l112.277344-112.277344c.375-.375.699218-.777344 1.003906-1.191406 16.824219 8.300781 35.195312 12.453125 53.566406 12.453125 30.953125 0 61.90625-11.78125 85.46875-35.34375l89.511719-89.511719h33.984375zm54-229.867188c0 7.71875-6.28125 14-14 14h-296c-7.71875 0-14-6.28125-14-14v-198.128906c0-7.71875 6.28125-14 14-14h296c7.71875 0 14 6.28125 14 14zm0 0"/><path d="m10 130c2.628906 0 5.210938-1.070312 7.070312-2.929688 1.859376-1.859374 2.929688-4.441406 2.929688-7.070312s-1.070312-5.210938-2.929688-7.070312c-1.859374-1.859376-4.441406-2.929688-7.070312-2.929688s-5.210938 1.070312-7.070312 2.929688c-1.859376 1.859374-2.929688 4.441406-2.929688 7.070312s1.070312 5.210938 2.929688 7.070312c1.859374 1.859376 4.441406 2.929688 7.070312 2.929688zm0 0"/></svg>